# xmcd
#
# Track frame offsets:
#	150
#	13707
#	28133
#	39138
#	57314
#	75132
#	88487
#	102970
#	113287
#	127881
#	143297
#	161865
#	189773
#	206064
#
# Disc length: 2829 seconds
#
# Revision: 0
# Processed by: cddbd v1.5.2PL0 Copyright (c) Steve Scherf et al.
# Submitted via: EZCDAudioConverter 3.0.8.1
#
DISCID=a30b0b0e
DTITLE=MARIA NOHEL - PERMISO
DYEAR=1900
DGENRE=
TTITLE0=VAIVEN
TTITLE1=DESCALZA
TTITLE2=HUELLAS
TTITLE3=A DONDE NUESTRO CIELO
TTITLE4=DE MI COLOR EN VOS
TTITLE5=BARRIO
TTITLE6=CUENTOS
TTITLE7=YA NO TENGO GANAS
TTITLE8=QUEDATE AQUI
TTITLE9=Y MAÑANA Y PASADO Y AYRT
TTITLE10=TE ABRACE EN LA NOCHE
TTITLE11=AMIGO LINDO DEL ALMA
TTITLE12=MIEDOS
TTITLE13=PEQUEÑA SERENATA DIURNA
EXTD=
EXTT0=
EXTT1=
EXTT2=
EXTT3=
EXTT4=
EXTT5=
EXTT6=
EXTT7=
EXTT8=
EXTT9=
EXTT10=
EXTT11=
EXTT12=
EXTT13=
PLAYORDER=
